<?xml version="1.0" encoding="UTF-8"?>
<svg id="Layer_2" data-name="Layer 2" xmlns="http://www.w3.org/2000/svg" viewBox="0 0 863.21 150.54">
	<defs>
		<style>
			.cls-1 {
			clip-path: url(#clippath-1);
			}

			.cls-2 {
			clip-path: url(#clippath);
			}

			.cls-3 {
			fill: none;
			}

			.cls-4 {
			fill: #23282f;
			}
		</style>
		<clipPath id="clippath">
			<rect class="cls-3" y="0" width="863.21" height="150.54"/>
		</clipPath>
		<clipPath id="clippath-1">
			<rect class="cls-3" y="0" width="863.21" height="150.54"/>
		</clipPath>
	</defs>
	<g id="Layer_1-2" data-name="Layer 1">
		<g id="ENATA_Logo_-_landscape" data-name="ENATA Logo - landscape">
			<g class="cls-2">
				<path class="cls-4" d="m252.85,67.82l-5.12,15.51h61.36v-15.51h-56.24ZM216.02,2.67v147.87h98.23v-15.51h-79.11v-51.44h0v-15.91h0V18.18h77.56V2.67h-96.68Z"/>
				<polygon class="cls-4" points="447.95 2.67 447.95 121.79 357.47 2.67 338.34 2.67 338.34 150.54 356.44 150.54 356.44 30.39 446.91 150.54 466.04 150.54 466.04 2.67 447.95 2.67"/>
				<polygon class="cls-4" points="549.07 2.67 486.31 150.54 506.16 150.54 559 21.5 586.61 88.5 549.38 88.5 544.11 104.01 593.02 104.01 612.15 150.54 633.35 150.54 570.27 2.67 549.07 2.67"/>
				<polygon class="cls-4" points="618.71 2.67 618.71 18.19 665.25 18.19 665.25 150.54 684.38 150.54 684.38 18.19 730.9 18.19 730.9 2.67 618.71 2.67"/>
				<polygon class="cls-4" points="778.93 2.67 716.17 150.54 736.02 150.54 788.86 21.5 816.47 88.5 779.24 88.5 773.97 104.01 822.88 104.01 842.01 150.54 863.21 150.54 800.13 2.67 778.93 2.67"/>
				<g class="cls-1">
					<path class="cls-4"
						  d="m137.56,133.6h-19.05s3.99-16.58,8.2-24.57c4.35-8.24,8.21-11.42,15.16-24.85C154.72,59.34,166.2,20.16,147.53,0c-7.03,18.62-13.79,33.03-36.78,53.43l4.31,7.77,18.39-15.51c5.44-4.59,8.89-1.67,5.17,12.34-3.72,14.02-22.74,40.84-35.41,44.97-14.85,4.85-18.04-10.22-18.14-14.08-.1-3.55-.07-5.27-.02-6.31.44-11.25,1.57-42.09,1.57-42.09l12.35-17.81L78.76,2.78l-.1-.1-.1.1-20.21,19.92,12.36,17.81s1.13,30.85,1.57,42.09c.05,1.05.08,2.76,0,6.32-.11,3.85-3.29,18.92-18.14,14.08-12.67-4.14-31.7-30.95-35.42-44.97-3.72-14.02-.28-16.94,5.17-12.35l18.39,15.51,4.31-7.76C23.6,33.03,16.83,18.62,9.8,0-8.87,20.16,2.61,59.34,15.47,84.19c6.95,13.42,10.81,16.61,15.16,24.85,4.21,7.99,8.2,24.56,8.2,24.56h-19.05s-3.06-15.52-3.06-15.52l-12.07-7.18,5.1,39.65h137.88l5.09-39.65-12.07,7.18-3.07,15.53Zm-58.9,6.44h0c-8.22,0-14.89-6.67-14.89-14.89s6.67-14.9,14.89-14.9,14.9,6.68,14.9,14.9-6.68,14.89-14.9,14.89"/>
				</g>
			</g>
		</g>
	</g>
</svg>