<?xml version="1.0" encoding="UTF-8" standalone="no"?>
<svg
		xmlns="http://www.w3.org/2000/svg"
		width="3250.0957"
		height="529.31262"
		version="1.1">
	<g transform="translate(224.70989,72.934522)">
		<path style="stroke-width:1px;fill:#ffffff;fill-opacity:1"
			  d="m -190.23871,-72.934482 c -65.65245,70.8788095 -25.29149,208.650262 19.91407,296.009772 24.41865,47.189 37.99083,58.38372 53.28515,87.38672 14.80257,28.0705 28.832025,86.32227 28.832025,86.32227 l -66.999995,0.0352 -10.78125,-54.59766 -42.4375,-25.25 17.91407,139.40625 h 241.085925 1.31445 v -33.25 h -0.002 c -29.84721,0 -54.0624998,-24.18405 -54.0624998,-54.03125 0,-29.8472 24.2152898,-54.0625 54.0624998,-54.0625 h 0.002 V -63.530142 l -0.002,0.002 -0.3125,-0.3125 -0.0312,0.6562 -71.0625,70.0625095 43.4375,62.6249975 c 0,0 3.97258,108.459485 5.53125,147.992185 0.14578,3.6975 0.28485,9.73819 -0.0586,22.21289 -0.37321,13.5543 -11.57603,66.54407 -63.78907,49.50977 -44.53901,-14.5308 -111.446585,-108.825 -124.525375,-158.1211 -13.07879,-49.295995 -0.96135,-59.556445 18.1875,-43.406245 l 64.656235,54.531245 15.15625,-27.28125 C -141.7366,43.220088 -165.52695,-7.4835325 -190.23871,-72.934482 Z m 484.25391,0 C 269.3035,-7.4835725 245.515,43.220178 164.7027,114.93857 l 15.15625,27.28125 64.65625,-54.531245 c 19.1488,-16.1502 31.2663,-5.88975 18.1875,43.406245 -13.0788,49.2961 -79.98639,143.5903 -124.52539,158.1211 -52.213005,17.0343 -63.415875,-35.95548 -63.789075,-49.50978 -0.3439,-12.47468 -0.20634,-18.51539 -0.0605,-22.21289 1.5587,-39.5327 5.53125,-147.992175 5.53125,-147.992175 L 123.29649,6.8760775 52.233985,-63.186382 l -0.0312,-0.6563 -0.3125,0.3125 V 315.03428 c 29.8472,0 54.062505,24.2153 54.062505,54.0625 0,29.8472 -24.215305,54.03125 -54.062505,54.03125 v 33.25 h 1.31445 241.085945 l 17.91406,-139.40625 -42.4375,25.25 -10.78125,54.59766 -67,-0.0352 c 0,0 14.02943,-58.25177 28.83203,-86.32227 15.2943,-29.003 28.86646,-40.19768 53.28516,-87.38672 45.2055,-87.35951 85.56656,-225.1309625 19.91406,-296.009772 h -0.002 z"/>
		<g transform="matrix(5.0148661,0,0,5.0148661,228.18127,223.3241)"
		   style="fill:#ffffff;fill-opacity:1">
			<path style="font-style:normal;font-variant:normal;font-weight:normal;font-stretch:normal;font-size:150.70437622px;line-height:125%;font-family:Sansation;-inkscape-font-specification:'Sansation, Normal';text-align:start;letter-spacing:0px;word-spacing:0px;writing-mode:lr-tb;text-anchor:start;fill:#ffffff;fill-opacity:1;stroke:none;stroke-width:1px;stroke-linecap:butt;stroke-linejoin:miter;stroke-opacity:1"
				  d="M 62.032901,-58.75588 V 46.47262 H 131.93915 V 35.43352 H 75.646181 V -1.1757796 h -0.008 V -12.49618 h 0.008 v -35.2226 h 55.189449 v -11.0371 z m 26.20312,46.3594 -3.64257,11.0371004 H 128.25946 V -12.39648 Z"/>
			<path d="m 152.39654,46.47222 v -105.2282 h 13.61343 l 64.38786,84.7712 v -84.7712 h 12.87757 v 105.2282 h -13.61343 l -64.38786,-85.5071 v 85.5071 z"
				  style="font-style:normal;font-variant:normal;font-weight:normal;font-stretch:normal;font-size:150.70437622px;line-height:125%;font-family:Sansation;-inkscape-font-specification:'Sansation, Normal';text-align:start;letter-spacing:0px;word-spacing:0px;writing-mode:lr-tb;text-anchor:start;fill:#ffffff;fill-opacity:1;stroke:none;stroke-width:1px;stroke-linecap:butt;stroke-linejoin:miter;stroke-opacity:1"/>
			<path d="m 271.82681,46.47222 h -14.12853 l 44.66677,-105.2282 h 15.08516 l 44.88753,105.2282 h -15.08515 l -13.61343,-33.1138 h -34.80624 l 3.75289,-11.0378996 h 26.49101 L 309.42932,-45.36328 Z"
				  style="font-style:normal;font-variant:normal;font-weight:normal;font-stretch:normal;font-size:150.70437622px;line-height:125%;font-family:Sansation;-inkscape-font-specification:'Sansation, Normal';text-align:start;letter-spacing:0px;word-spacing:0px;writing-mode:lr-tb;text-anchor:start;fill:#ffffff;fill-opacity:1;stroke:none;stroke-width:1px;stroke-linecap:butt;stroke-linejoin:miter;stroke-opacity:1"/>
			<path d="m 447.69763,-58.75598 v 11.0379 h -33.11375 v 94.1903 h -13.61344 v -94.1903 h -33.11375 v -11.0379 z"
				  style="font-style:normal;font-variant:normal;font-weight:normal;font-stretch:normal;font-size:150.70437622px;line-height:125%;font-family:Sansation;-inkscape-font-specification:'Sansation, Normal';text-align:start;letter-spacing:0px;word-spacing:0px;writing-mode:lr-tb;text-anchor:start;fill:#ffffff;fill-opacity:1;stroke:none;stroke-width:1px;stroke-linecap:butt;stroke-linejoin:miter;stroke-opacity:1"/>
			<path d="m 467.27155,46.47222 h -14.12854 l 44.66678,-105.2282 h 15.08515 l 44.88754,105.2282 h -15.08516 l -13.61343,-33.1138 h -34.80624 l 3.7529,-11.0378996 h 26.491 L 504.87406,-45.36328 Z"
				  style="font-style:normal;font-variant:normal;font-weight:normal;font-stretch:normal;font-size:150.70437622px;line-height:125%;font-family:Sansation;-inkscape-font-specification:'Sansation, Normal';text-align:start;letter-spacing:0px;word-spacing:0px;writing-mode:lr-tb;text-anchor:start;fill:#ffffff;fill-opacity:1;stroke:none;stroke-width:1px;stroke-linecap:butt;stroke-linejoin:miter;stroke-opacity:1"/>
		</g>
	</g>
</svg>
