<?xml version="1.0" encoding="UTF-8" standalone="no"?>
<!DOCTYPE svg PUBLIC "-//W3C//DTD SVG 1.1//EN" "http://www.w3.org/Graphics/SVG/1.1/DTD/svg11.dtd">
<svg width="100%" height="100%" viewBox="0 0 183 178" version="1.1" xmlns="http://www.w3.org/2000/svg" xmlns:xlink="http://www.w3.org/1999/xlink" xml:space="preserve" xmlns:serif="http://www.serif.com/" style="fill-rule:evenodd;clip-rule:evenodd;stroke-linejoin:round;stroke-miterlimit:2;">
    <g id="ENATA_Logo_-_portrait">
        <g id="Group_104">
            <g id="Group_102">
                <path id="Path_127" d="M160.385,155.769L138.175,155.76C138.175,155.76 142.824,136.441 147.735,127.13C152.806,117.519 157.304,113.807 165.405,98.157C180.393,69.187 193.775,23.503 172.005,0.001C163.805,21.707 155.925,38.519 129.129,62.301L134.151,71.351L155.59,53.266C161.938,47.91 165.956,51.31 161.616,67.657C157.276,84.004 135.1,115.273 120.329,120.086C103.014,125.739 99.296,108.173 99.178,103.669C99.06,99.535 99.105,97.53 99.154,96.308C99.673,83.2 100.992,47.236 100.992,47.236L115.392,26.467L91.832,3.236L91.714,3.124L91.602,3.236L68.036,26.465L82.443,47.234C82.443,47.234 83.756,83.2 84.271,96.309C84.326,97.534 84.371,99.533 84.259,103.676C84.135,108.171 80.419,125.737 63.105,120.093C48.338,115.271 26.152,84 21.812,67.657C17.472,51.314 21.491,47.907 27.841,53.263L49.281,71.348L54.306,62.298C27.514,38.518 19.623,21.706 11.425,0C-10.336,23.5 3.045,69.186 18.031,98.156C26.131,113.806 30.631,117.518 35.704,127.129C40.614,136.44 45.261,155.759 45.261,155.759L23.042,155.768L19.469,137.668L5.4,129.289L11.344,175.522L172.1,175.522L178.038,129.289L163.965,137.669L160.385,155.769ZM91.715,164.495C81.888,164.488 73.806,156.401 73.806,146.574C73.806,136.743 81.896,128.653 91.727,128.653C101.558,128.653 109.648,136.743 109.648,146.574C109.648,146.575 109.648,146.576 109.648,146.577C109.647,156.407 101.559,164.495 91.729,164.495C91.724,164.495 91.72,164.495 91.715,164.495" style="fill:white;fill-rule:nonzero;"/>
            </g>
            <g id="Group_103">
            </g>
        </g>
    </g>
</svg>
